<?xml version="1.0" encoding="UTF-8" standalone="no"?>
<!DOCTYPE svg PUBLIC "-//W3C//DTD SVG 1.1//EN" "http://www.w3.org/Graphics/SVG/1.1/DTD/svg11.dtd">
<svg width="100%" height="100%" viewBox="0 0 512 512" version="1.1" xmlns="http://www.w3.org/2000/svg" xmlns:xlink="http://www.w3.org/1999/xlink" xml:space="preserve" xmlns:serif="http://www.serif.com/" style="fill-rule:evenodd;clip-rule:evenodd;stroke-linejoin:round;stroke-miterlimit:2;">
    <g transform="matrix(6.2075e-17,1.01376,-1.08333,6.6335e-17,540.917,-6.56422)">
        <ellipse cx="259" cy="263" rx="218" ry="204" style="fill:url(#_Radial1);"/>
    </g>
    <g transform="matrix(13.0524,0,0,7.41516,83.1186,55.7907)">
        <path d="M12,15C12,14.448 11.745,14 11.432,14L5.568,14C5.255,14 5,14.448 5,15C5,15.552 5.255,16 5.568,16L11.432,16C11.745,16 12,15.552 12,15Z" style="fill:rgb(179,179,179);"/>
    </g>
    <g transform="matrix(13.0524,0,0,7.41516,83.1186,55.7907)">
        <path d="M10,21C10,20.448 9.745,20 9.432,20L5.568,20C5.255,20 5,20.448 5,21C5,21.552 5.255,22 5.568,22L9.432,22C9.745,22 10,21.552 10,21Z" style="fill:rgb(179,179,179);"/>
    </g>
    <g transform="matrix(13.0524,0,0,7.41516,83.1186,55.7907)">
        <path d="M12,27C12,26.448 11.745,26 11.432,26L5.568,26C5.255,26 5,26.448 5,27C5,27.552 5.255,28 5.568,28L11.432,28C11.745,28 12,27.552 12,27Z" style="fill:rgb(179,179,179);"/>
    </g>
    <g transform="matrix(13.0524,0,0,7.41516,83.1186,55.7907)">
        <path d="M10,33C10,32.448 9.745,32 9.432,32L5.568,32C5.255,32 5,32.448 5,33C5,33.552 5.255,34 5.568,34L9.432,34C9.745,34 10,33.552 10,33Z" style="fill:rgb(179,179,179);"/>
    </g>
    <g transform="matrix(13.0524,0,0,7.41516,83.1186,55.7907)">
        <path d="M12,39C12,38.448 11.745,38 11.432,38L5.568,38C5.255,38 5,38.448 5,39C5,39.552 5.255,40 5.568,40L11.432,40C11.745,40 12,39.552 12,39Z" style="fill:rgb(179,179,179);"/>
    </g>
    <g transform="matrix(20.1914,0,0,7.41516,-141.166,55.7907)">
        <path d="M25,14.99C25,14.444 24.837,14 24.636,14L20.364,14C20.163,14 20,14.444 20,14.99L20,15.01C20,15.556 20.163,16 20.364,16L24.636,16C24.837,16 25,15.556 25,15.01L25,14.99Z" style="fill:rgb(148,119,162);"/>
    </g>
    <g transform="matrix(18.2192,0,0,7.41516,-201.175,55.7907)">
        <path d="M31,21C31,20.448 30.818,20 30.593,20L24.407,20C24.182,20 24,20.448 24,21C24,21.552 24.182,22 24.407,22L30.593,22C30.818,22 31,21.552 31,21Z" style="fill:rgb(255,215,57);"/>
    </g>
    <g transform="matrix(10.0603,0,0,7.41516,-8.61061,55.7907)">
        <path d="M37,27C37,26.448 36.67,26 36.263,26L27.737,26C27.33,26 27,26.448 27,27C27,27.552 27.33,28 27.737,28L36.263,28C36.67,28 37,27.552 37,27Z" style="fill:rgb(100,146,85);"/>
    </g>
    <g transform="matrix(18.0251,0,0,7.41516,-195.16,55.7907)">
        <path d="M31,33C31,32.448 30.816,32 30.589,32L24.411,32C24.184,32 24,32.448 24,33C24,33.552 24.184,34 24.411,34L30.589,34C30.816,34 31,33.552 31,33Z" style="fill:rgb(239,211,88);"/>
    </g>
    <g transform="matrix(20.1914,0,0,7.41516,-141.166,55.7907)">
        <path d="M25,39C25,38.448 24.835,38 24.633,38L20.367,38C20.165,38 20,38.448 20,39C20,39.552 20.165,40 20.367,40L24.633,40C24.835,40 25,39.552 25,39Z" style="fill:rgb(232,108,96);"/>
    </g>
    <defs>
        <radialGradient id="_Radial1" cx="0" cy="0" r="1" gradientUnits="userSpaceOnUse" gradientTransform="matrix(436,0,0,408,41,263)"><stop offset="0" style="stop-color:rgb(104,104,104);stop-opacity:1"/><stop offset="0.48" style="stop-color:rgb(60,60,60);stop-opacity:1"/><stop offset="1" style="stop-color:rgb(46,46,46);stop-opacity:1"/></radialGradient>
    </defs>
</svg>
